<?xml version="1.0" encoding="UTF-8"?>
<svg width="1200pt" height="1200pt" version="1.1" viewBox="0 0 1200 1200" xmlns="http://www.w3.org/2000/svg">
 <g>
  <path d="m60 0h1080c33.137 0 60 33.137 60 60v1080c0 33.137-26.863 60-60 60h-1080c-33.137 0-60-33.137-60-60v-1080c0-33.137 26.863-60 60-60z" fill="#f2f2f2"/>
  <path d="m917.57 723.03-81.402-14.809v-22.789c12.621-10.145 22.555-23.449 28.656-38.707 30.156-2.6094 54-27.703 54-58.531v-104.36c0-26.438-16.258-49.938-40.75-59.359l-8.6914-8.6797c-19.082-19.094-42.816-31.801-68.641-37.184v-144.66h-359.13l-113.19 113.19v241.75c-53.055 5.8906-94.465 50.965-94.465 105.57 0 36.77 18.773 69.219 47.23 88.301v136.05l59.039-44.281 59.043 44.281v-70.848h188.93v118.08h377.86v-184.94c0-28.539-20.391-52.961-48.484-58.082zm-90.262 7.5898 8.3125 1.5117-7.8047 46.809-31.422-25.141zm-14.758-18.441-35.426 26.566-35.426-26.566v-12.859c10.949 4.4492 22.898 6.9531 35.426 6.9531s24.477-2.5039 35.426-6.9531zm-85.609 18.441 30.914 23.18-31.422 25.141-7.8047-46.809zm121.03-118.81c0 39.074-31.777 70.848-70.848 70.848-39.074 0-70.848-31.777-70.848-70.848v-70.848c0-6.5195 5.3008-11.809 11.809-11.809h75.75l17.273-17.297c4.0859-4.0742 9.5039-6.3164 15.27-6.3164 11.914 0 21.594 9.6797 21.594 21.582zm23.109 9.7891c0.33203-3.2109 0.50781-6.4805 0.50781-9.7891v-56.867c13.711 4.8867 23.617 17.879 23.617 33.25 0 15.566-10.156 28.66-24.125 33.406zm-5.8672-176.59 2.6445 0.875c16.355 5.4688 27.348 20.711 27.348 37.953v57.422c-6.8945-5.2188-14.844-9.1289-23.617-10.91v-3.2227c0-24.918-20.273-45.203-45.211-45.203-12.066 0-23.414 4.6992-31.965 13.238l-10.379 10.379h-65.949c-15.738 0-28.965 10.391-33.559 24.621-9.4805 1.6289-18.102 5.5273-25.48 11.098v-28.562c0-62.539 50.891-113.43 113.43-113.43 30.301 0 58.793 11.797 80.211 33.215zm-182.05 176.59c-13.969-4.7461-24.121-17.84-24.121-33.402 0-15.375 9.9062-28.363 23.617-33.25l-0.003906 56.863c0 3.3086 0.17969 6.5781 0.50781 9.7891zm46.727-239.09c-41.352 13.555-74.047 46.266-87.605 87.605h-77.707v-165.31h165.31zm47.23-6.6328c-1.5586-0.050781-3.082-0.22656-4.6523-0.22656-6.4453 0-12.754 0.60156-18.965 1.4766l0.003906-95.941h-212.55v212.54h95.941c-0.875 6.2266-1.4766 12.52-1.4766 18.965v75.504c0 30.832 23.84 55.922 54 58.531 6.0938 15.27 16.035 28.562 28.656 38.707v22.789l-81.418 14.809c-6.7305 1.2266-12.988 3.625-18.668 6.8594h-177.71c3.957-11.102 6.2109-22.992 6.2109-35.426 0-54.613-41.41-99.684-94.465-105.57v-225.05h106.27v-106.27h318.82zm-408.39-35.648 65.957-65.961v65.961zm-111.16 354.24c0-45.566 37.078-82.656 82.656-82.656 45.578 0 82.656 37.09 82.656 82.656s-37.078 82.656-82.656 82.656c-45.582 0-82.656-37.09-82.656-82.656zm82.656 150.55-35.426 26.566v-77.047c11.098 3.9453 22.992 6.1992 35.426 6.1992 12.434 0 24.324-2.2539 35.426-6.1992l-0.003906 77.047zm59.039-20.664v-41.59c11.559-7.7461 21.516-17.699 29.262-29.262h166.67c-4.4062 8.3047-7.0039 17.668-7.0039 27.609v43.242zm212.54-43.242c0-17.121 12.234-31.777 29.082-34.855l54.48-9.8945 14.359 86.176 55.582-44.461v164.36h-153.5zm330.62 161.32h-153.5v-164.36l55.57 44.457 14.359-86.176 54.48 9.8945c16.863 3.0703 29.094 17.738 29.094 34.859z" fill="#23384d"/>
  <path d="m340.23 753.51c32.555 0 59.039-26.484 59.039-59.039s-26.484-59.039-59.039-59.039c-32.555 0-59.039 26.484-59.039 59.039-0.003906 32.551 26.484 59.039 59.039 59.039zm0-94.465c19.531 0 35.426 15.895 35.426 35.426s-15.895 35.426-35.426 35.426-35.426-15.895-35.426-35.426c0-19.535 15.895-35.426 35.426-35.426z" fill="#23384d"/>
  <path d="m375.65 387.46h141.7v23.617h-141.7z" fill="#23384d"/>
  <path d="m375.65 434.69h141.7v23.617h-141.7z" fill="#23384d"/>
  <path d="m375.65 481.92h141.7v23.617h-141.7z" fill="#23384d"/>
  <path d="m529.15 777.12h23.617v23.617h-23.617z" fill="#23384d"/>
  <path d="m481.92 777.12h23.617v23.617h-23.617z" fill="#23384d"/>
  <path d="m434.69 777.12h23.617v23.617h-23.617z" fill="#23384d"/>
  <path d="m470.11 659.04h141.7v23.617h-141.7z" fill="#23384d"/>
  <path d="m470.11 611.81h141.7v23.617h-141.7z" fill="#23384d"/>
  <path d="m470.11 564.58h141.7v23.617h-141.7z" fill="#23384d"/>
  <path d="m812.55 847.97h23.617v23.617h-23.617z" fill="#23384d"/>
  <path d="m812.55 895.2h23.617v23.617h-23.617z" fill="#23384d"/>
 </g>
</svg>
