<?xml version="1.0" encoding="UTF-8"?>
<svg width="1200pt" height="1200pt" version="1.1" viewBox="0 0 1200 1200" xmlns="http://www.w3.org/2000/svg">
 <defs>
  <clipPath id="b">
   <path d="m222.14 452h236.86v367h-236.86z"/>
  </clipPath>
  <clipPath id="a">
   <path d="m741 440h236.86v379h-236.86z"/>
  </clipPath>
 </defs>
 <path d="m60 0h1080c33.137 0 60 33.137 60 60v1080c0 33.137-26.863 60-60 60h-1080c-33.137 0-60-33.137-60-60v-1080c0-33.137 26.863-60 60-60z" fill="#f2f2f2"/>
 <g clip-path="url(#b)">
  <path d="m233.95 818.51h212.54c6.5312 0 11.809-5.2773 11.809-11.809v-47.281c0-26.047-21.184-47.23-47.23-47.23-0.12891 0-0.22266 0.070312-0.34375 0.070312l-23.273 0.003907v-24.715c28.176-16.355 47.207-46.773 47.23-81.617v-0.011719-53.148c0-25.953-9.9883-49.559-26.215-67.387-0.26172-0.34375-0.56641-0.64844-0.875-0.96875-18.336-19.637-44.363-32.012-73.293-32.012-55.328 0-100.35 45.023-100.35 100.37v5.8555c0 0.49609 0.23438 0.93359 0.28516 1.418 0.09375 0.79297 0.21094 1.5469 0.46094 2.2891 0.24609 0.73047 0.56641 1.3711 0.94531 2.0195 0.36719 0.66016 0.74219 1.2734 1.2383 1.8555 0.49609 0.57812 1.0391 1.0508 1.6406 1.5234 0.58984 0.47266 1.168 0.88672 1.8438 1.2383 0.69531 0.36719 1.418 0.60156 2.1953 0.81641 0.47266 0.14062 0.85156 0.42578 1.3477 0.49609 0.64844 0.10547 1.2031 0.11719 1.8438 0.22266v35.402 0.011719c0.023438 34.844 19.059 65.262 47.23 81.617v24.715h-23.266c-0.12891 0-0.22266-0.070312-0.34375-0.070312-26.047 0-47.23 21.184-47.23 47.23v47.281c0 6.5391 5.2773 11.816 11.809 11.816zm106.27-81.309 13.957 6.9805-13.957 32.566-13.957-32.566zm94.461 22.223v35.473h-76.551l25.305-59.016 27.633-0.003906c0.082031 0 0.15234-0.046875 0.23438-0.046875 12.906 0.13281 23.379 10.652 23.379 23.594zm-33.426-244.09c3.9102 6.9805 6.7773 14.605 8.3594 22.695-5.3945-4.0977-10.496-6.707-15.492-8.207zm-66.953-39.312c19.363 0 37.031 7.2617 50.539 19.141l-17.488 35.637c-4.6758 1.3828-9.5156 3.1992-14.664 5.2422-19.602 7.7695-46.266 17.996-94.891 12.176 2.3867-40.195 35.73-72.195 76.504-72.195zm-64.934 129.86v-32.793c45.828 3.0117 73.117-7.6172 92.008-15.09 22.246-8.8086 28.883-11.348 49.688 15.055v32.84c0 39.062-31.777 70.836-70.848 70.836-39.07 0-70.848-31.789-70.848-70.848zm70.852 94.453c8.1602 0 16.047-1.1562 23.617-3.1172v21.891l-2.3281 2.3281-16-8.0039c-0.26172-0.12891-0.55469-0.11719-0.82812-0.22266-0.74219-0.30859-1.4883-0.46094-2.2656-0.61328-0.74219-0.14063-1.4414-0.28516-2.1836-0.28516-0.74219 0-1.4414 0.15234-2.1836 0.28516-0.78125 0.15234-1.5352 0.29687-2.2773 0.61328-0.26172 0.10547-0.55469 0.09375-0.81641 0.22266l-16 8.0039-2.3516-2.3164v-21.891c7.5703 1.9453 15.457 3.1055 23.617 3.1055zm-71.086 35.504c0.082031 0 0.15234 0.046875 0.23438 0.046875h27.645l25.305 59.016-76.562 0.003906v-35.473c0-12.941 10.473-23.461 23.379-23.594z" fill="#23384d"/>
 </g>
 <path d="m682.66 818.51h-23.617v-27.797c35.234-20.441 59.039-58.496 59.039-102.09v-70.906c0-28.516-20.32-52.367-47.23-57.859l0.003906-36.602c0-6.5195-5.2773-11.809-11.809-11.809h-70.848c-58.602 0-106.27 47.68-106.27 106.29v71.484c0 0.070312 0.035156 0.12891 0.035156 0.19922 0.28516 43.266 23.98 80.992 59.004 101.32v27.785h-23.617c-39.074 0-70.848 31.777-70.848 70.848v47.23c0 13.023 10.594 23.617 23.617 23.617h259.78c13.023 0 23.617-10.594 23.617-23.617v-47.23c0-39.082-31.777-70.859-70.852-70.859zm47.234 70.852v47.23h-112.44l37.773-94.465h27.43c26.051 0 47.234 21.184 47.234 47.234zm-148.64-24.773c0.14062-0.058594 0.27344-0.023438 0.41406-0.09375l18.336-9.1641 18.336 9.1641c0.14062 0.070312 0.27344 0.035156 0.41406 0.09375 0.60156 0.27344 1.2031 0.39062 1.832 0.56641l-20.582 51.457-20.582-51.449c0.64062-0.1875 1.2305-0.29297 1.832-0.57422zm6.9453-329.53h59.039v35.426c0 6.5195 5.2773 11.809 11.809 11.809 19.531 0 35.426 15.895 35.426 35.438v13.52l-17.004-11.488c-0.49609-0.33203-1.0625-0.40234-1.5938-0.66016-0.63672-0.30859-1.2383-0.61328-1.9258-0.79297-0.82812-0.23438-1.6289-0.29688-2.4688-0.34375-0.68359-0.035156-1.3242-0.082032-2.0078 0-0.85156 0.10547-1.6406 0.35547-2.4453 0.63672-0.46094 0.15234-0.93359 0.14063-1.3828 0.35547-0.22266 0.11719-22.211 10.594-59.738 10.594-38.695 0-72.691-11.086-73.043-11.207-0.24609-0.082031-0.48438-0.023438-0.73047-0.09375-0.80469-0.21094-1.6055-0.24609-2.4336-0.28516-0.73047-0.035156-1.4297-0.09375-2.1484 0-0.73047 0.10547-1.4062 0.35547-2.125 0.60156-0.75391 0.24609-1.4883 0.49609-2.1836 0.89844-0.23438 0.14062-0.49609 0.15234-0.71875 0.29688l-16.98 11.484v-13.52c0-45.578 37.086-82.668 82.656-82.668zm-82.656 153.57v-28.883l25.578-17.273c11.961 3.4141 41.387 10.688 74.793 10.688 31.387 0 53.289-6.4727 63.562-10.297l24.992 16.883v28.883c0 52.086-42.379 94.453-94.477 94.453-52.082 0-94.449-42.367-94.449-94.453zm94.449 118.07c12.34 0 24.242-1.9141 35.438-5.4453v24.172l-14.133 14.133-16-8.0039c-0.26172-0.12891-0.55469-0.11719-0.81641-0.22266-0.74219-0.30859-1.5-0.46094-2.2773-0.61328-0.74219-0.14062-1.4414-0.28516-2.1836-0.28516s-1.4414 0.15234-2.1836 0.28516c-0.78125 0.15234-1.5469 0.29688-2.2773 0.61328-0.26172 0.10547-0.55469 0.09375-0.81641 0.22266l-16 8.0039-14.16-14.133v-24.172c11.184 3.5312 23.074 5.4453 35.41 5.4453zm-82.645 35.422h27.43l37.773 94.465h-112.39c-0.023438 0-0.035156-0.011719-0.058594-0.011719v-47.219c0.015625-26.051 21.199-47.234 47.246-47.234z" fill="#23384d"/>
 <g clip-path="url(#a)">
  <path d="m871.59 440.55c-21.113 0-43.016 8.3594-63.574 24.078-23.887 2.3125-42.699 22.281-42.699 46.77v94.523 0.011719c0.023438 34.844 19.059 65.262 47.23 81.617v24.715h-23.273c-0.12891 0-0.22266-0.070313-0.34375-0.070313-26.047 0-47.23 21.184-47.23 47.23v47.281c0 6.5312 5.2773 11.809 11.809 11.809h212.54c6.5312 0 11.809-5.2773 11.809-11.809v-47.281c0-26.047-21.184-47.23-47.23-47.23-0.12891 0-0.22266 0.070313-0.34375 0.070313h-23.27v-24.715c19.531-11.348 34.621-29.449 42.07-51.117 3.2852 8.9023 5.1602 18.469 5.1602 28.504 0 6.5312 5.2773 11.809 11.809 11.809s11.809-5.2773 11.809-11.809v-118.12c0-58.59-47.668-106.27-106.27-106.27zm-70.848 50.516v43.949c0 8.7031-4.7812 16.234-11.809 20.332v-43.949c0-8.7031 4.7812-16.238 11.809-20.332zm59.039 246.14 13.957 6.9805-13.957 32.566-13.957-32.566zm-71.082-1.3711c0.082032 0 0.15234 0.046875 0.23438 0.046875h27.645l25.305 59.016-76.566 0.003906v-35.473c0-12.941 10.477-23.461 23.383-23.594zm165.55 23.594v35.473h-76.551l25.305-59.016 27.629-0.003906c0.082031 0 0.15234-0.046875 0.23438-0.046875 12.91 0.13281 23.383 10.652 23.383 23.594zm-70.848-40.312-2.3281 2.3281-16-8.0039c-0.26172-0.12891-0.55469-0.11719-0.81641-0.22266-0.74219-0.30859-1.5-0.46094-2.2773-0.61328-0.74219-0.14062-1.4414-0.28516-2.1836-0.28516-0.74219 0-1.4414 0.15234-2.1836 0.28516-0.78125 0.15234-1.5352 0.29688-2.2656 0.61328-0.27344 0.10547-0.56641 0.09375-0.82812 0.22266l-16 8.0039-2.3477-2.3281v-21.891c7.5703 1.9609 15.457 3.1172 23.617 3.1172s16.047-1.1562 23.617-3.1172zm-23.617-42.402c-39.074 0-70.848-31.777-70.848-70.836v-25.305c9.3281-2.4219 17.465-7.5938 23.617-14.641 8.6562 9.918 21.254 16.32 35.426 16.32h23.617c23.086 0 43.973 9.5391 58.98 24.855-0.67578 38.48-32.145 69.605-70.793 69.605zm94.465-78.441c-0.94531-1.168-1.9492-2.2656-2.9414-3.3906-0.32031-0.37891-0.61328-0.75391-0.98047-1.0859-19.457-21.535-47.5-35.164-78.734-35.164h-23.617c-13.023 0-23.617-10.594-23.617-23.617l0.003907-53.203c11.891-8.7031 28.621-17.641 47.23-17.641 45.566 0 82.656 37.078 82.656 82.656z" fill="#23384d"/>
 </g>
 <path d="m419.15 321.85 74.582 24.855v70.199c0 19.531 15.895 35.426 35.426 35.426h141.64c0.023437 0 0.035156 0.011719 0.058593 0.011719 19.531 0 35.438-15.895 35.438-35.438v-70.199l59.023-19.672v54.445c0 6.5195 5.2773 11.809 11.809 11.809s11.809-5.2891 11.809-11.809v-70.836c0-0.011719-0.011719-0.023437-0.011719-0.035156 0-1.4531-0.33203-2.8203-0.82812-4.1211-0.16406-0.44922-0.40234-0.81641-0.625-1.2383-0.4375-0.82812-0.93359-1.582-1.5469-2.2773-0.33203-0.39062-0.68359-0.74219-1.0742-1.0859-0.67188-0.58984-1.4297-1.0742-2.2305-1.5117-0.4375-0.23438-0.83984-0.50781-1.3242-0.68359-0.15234-0.058594-0.26172-0.17578-0.42578-0.22266l-177.12-59.039c-2.4219-0.80469-5.0547-0.80469-7.4727 0l-177.12 59.039c-4.8281 1.5898-8.0742 6.0859-8.0742 11.176 0 5.0898 3.2461 9.6016 8.0742 11.207zm263.52 95.055c0 6.5078-5.2891 11.797-11.797 11.809h-0.023438-141.7c-6.5195 0-11.809-5.3008-11.809-11.809v-62.324l78.926 26.309c1.2148 0.40234 2.4805 0.60156 3.7305 0.60156s2.5273-0.19922 3.7305-0.60156l78.938-26.309zm-82.668-152.86 104.32 34.773h-104.32c-6.5312 0-11.809 5.2891-11.809 11.809 0 6.5195 5.2773 11.809 11.809 11.809h104.39l-104.39 34.801-139.78-46.598z" fill="#23384d"/>
</svg>
