<svg width="2039" height="460" viewBox="0 0 2039 460" fill="none" xmlns="http://www.w3.org/2000/svg">
<g filter="url(#filter0_d_638_3)">
<path d="M194.883 320C197.633 320 199.383 316.25 197.383 314.25C186.633 302.25 186.383 296.25 186.383 275V245.75C225.133 246.5 277.383 243.25 273.633 193C269.883 143.25 214.883 145.25 177.883 145.25H140.383C137.383 145.25 135.883 148.75 137.883 151C148.633 162.75 148.633 168.75 148.633 190V275C148.633 296.25 148.633 302.25 137.883 314.25C135.883 316.25 137.383 320 140.383 320H194.883ZM186.383 160.5C203.883 160.75 230.383 164.25 233.633 191.25C236.883 219.5 211.383 234.25 186.383 235.5V160.5ZM377.678 282.25C376.928 282 376.178 282.25 375.678 282.75C370.428 287.25 358.428 291.5 346.178 291.5C328.428 291.5 309.428 283.25 306.678 256.5C331.928 256 365.928 255.25 379.928 249C383.428 247.5 383.678 242.75 383.428 238.75C380.678 208.5 357.678 193.75 327.178 194C296.428 194.5 269.678 222.5 269.178 256.5C268.678 291.5 297.678 320 327.928 320C351.178 320 370.928 305.5 381.678 286C382.178 285 381.678 283.5 380.428 283L377.678 282.25ZM306.428 248C306.678 224.5 317.678 208.5 327.678 208.5C338.428 208.5 343.178 221.25 345.928 240.75C346.928 246.75 342.178 246.25 332.928 247.25C326.428 248 317.428 248 306.428 248ZM480.748 193.25C467.498 190.5 451.998 196.25 440.748 207.75V197.25C440.748 194.75 438.498 193.25 436.248 194L389.498 209C386.998 209.75 386.248 212.75 387.748 214.5C396.498 224.75 402.998 236.75 402.998 245.25V275C402.998 296.25 402.998 302.25 392.248 314.25C390.248 316.5 391.748 320 394.748 320H448.748C451.748 320 453.498 316.5 451.248 314.25C443.248 305.5 440.748 299.75 440.748 289.25V223.75C445.498 219 450.998 216.75 456.498 216.75C465.998 216.75 476.248 223.25 485.998 234C487.248 235.5 489.498 235.5 490.998 234.25C506.498 219 497.498 196.75 480.748 193.25ZM509.494 314.25C507.494 316.5 508.994 320 511.994 320H566.244C569.244 320 570.744 316.5 568.744 314.25C560.744 305.5 558.244 299.75 558.244 289.25V199.75H578.494C580.244 199.75 581.744 198.25 581.744 196.25V192.25C581.744 190.25 580.244 188.75 578.494 188.75H558.244C557.994 170.5 557.994 153.75 566.994 149.75C575.994 145.75 580.494 159.75 581.494 179.25C581.494 181.25 583.244 182.75 585.244 182.75C604.494 181.75 611.744 165.25 607.744 155C604.244 145.75 590.994 140.25 576.244 140.25C552.244 140.25 523.244 154.25 520.744 188.75H502.994C500.994 188.75 499.494 190.25 499.494 192.25V196.25C499.494 198.25 500.994 199.75 502.994 199.75H520.494V275C520.494 296.25 520.244 302.25 509.494 314.25ZM644.316 194C609.316 194.5 578.816 222.5 578.316 256.5C577.566 291.5 610.816 320 645.066 320C679.316 320 710.316 291 710.316 256.5C710.066 221 677.316 193.75 644.316 194ZM644.816 305.25C614.816 305.25 609.816 208.5 644.816 208.5C673.816 208.5 679.316 305.25 644.816 305.25ZM802.594 193.25C789.344 190.5 773.844 196.25 762.594 207.75V197.25C762.594 194.75 760.344 193.25 758.094 194L711.344 209C708.844 209.75 708.094 212.75 709.594 214.5C718.344 224.75 724.844 236.75 724.844 245.25V275C724.844 296.25 724.844 302.25 714.094 314.25C712.094 316.5 713.594 320 716.594 320H770.594C773.594 320 775.344 316.5 773.094 314.25C765.094 305.5 762.594 299.75 762.594 289.25V223.75C767.344 219 772.844 216.75 778.344 216.75C787.844 216.75 798.094 223.25 807.844 234C809.094 235.5 811.344 235.5 812.844 234.25C828.344 219 819.344 196.75 802.594 193.25ZM922.34 287C922.34 302.25 917.09 306.75 912.59 314.75C911.34 317.25 912.84 320 915.59 320H966.09C969.09 320 970.59 316.75 968.84 314.5C963.59 307.75 961.59 301.5 961.34 294C960.84 280 962.84 256.5 962.84 236.75C962.84 231.5 962.09 226.5 960.59 222.25C967.59 213.5 975.84 209.5 983.34 209.5C995.09 209.5 1004.84 219 1005.34 236.75C1005.84 255.25 1005.09 268.25 1005.09 287C1005.09 302.25 999.84 306.75 995.34 314.75C994.09 317.25 995.84 320 998.34 320H1049.09C1051.84 320 1053.34 316.75 1051.59 314.5C1046.34 307.75 1044.59 301.5 1044.09 294C1043.59 280 1045.59 256.5 1045.59 236.75C1045.59 207.25 1022.34 192.75 998.09 192.75C982.09 192.75 965.84 199 955.09 211C946.34 199 931.09 193 915.34 193C900.84 193 885.84 198 875.09 208V197.25C875.09 194.75 872.84 193.25 870.59 194L823.84 209C821.34 209.75 820.59 212.75 822.09 214.5C830.84 224.75 837.34 236.75 837.34 245.25V275C837.34 296.25 837.34 302.25 826.59 314.25C824.59 316.5 826.09 320 829.09 320H883.09C886.09 320 887.84 316.5 885.59 314.25C877.59 305.5 875.09 299.75 875.09 289.25V221.75C882.09 212.75 890.84 208.5 898.84 208.5C911.09 208.5 922.09 218.5 922.59 236.75C923.09 255.25 922.34 268.25 922.34 287Z" fill="#24394E"/>
<path d="M1085.9 316.75C1090.15 317.5 1094.9 318 1099.4 318C1113.65 318 1127.9 314.25 1134.15 308.25C1136.65 314 1144.9 320 1156.15 320C1164.65 320 1179.65 319.5 1185.4 306C1185.65 305.5 1185.9 303.75 1185.4 303.25C1183.65 302.25 1179.9 306 1177.65 306C1164.4 306 1171.15 267.75 1171.15 234.75C1171.15 199 1142.4 188.75 1111.4 191.75C1094.4 193 1077.9 199 1068.15 204.75C1066.65 205.75 1066.15 207.5 1066.9 209.25L1075.15 228.25C1076.15 231 1080.15 231 1081.4 228.25C1087.65 214.75 1098.15 201.25 1107.65 198.5C1118.9 195.25 1129.9 212.5 1130.65 236C1130.9 247 1131.15 246.5 1130.9 253C1114.4 253.25 1098.65 253.75 1085.9 256.25C1044.4 264.75 1048.9 310.25 1085.9 316.75ZM1091.65 280.5C1091.65 270.25 1103.9 260 1130.9 261C1130.65 273.25 1128.9 292.5 1131.65 302.5C1129.15 304 1124.9 305 1120.15 305C1107.9 305 1091.65 298.75 1091.65 280.5ZM1269.31 248.25C1288.81 241.5 1297.31 222.75 1286.31 210.75C1276.31 199.5 1260.56 194 1241.81 194C1211.06 194.5 1184.31 222.5 1183.81 256.5C1183.31 291.5 1212.31 320 1242.56 320C1265.81 320 1285.56 305.5 1296.31 286C1296.81 285 1296.31 283.5 1295.06 283L1292.31 282.25C1291.56 282 1290.81 282.25 1290.31 282.75C1285.06 287.25 1273.06 291.5 1260.81 291.5C1241.56 291.5 1221.06 281.75 1221.06 249.25C1221.06 225 1232.06 208.5 1242.31 208.5C1252.31 208.5 1260.56 221 1260.56 246.75C1260.56 249 1262.81 250.75 1265.06 250L1269.31 248.25ZM1365.7 194C1330.7 194.5 1300.2 222.5 1299.7 256.5C1298.95 291.5 1332.2 320 1366.45 320C1400.7 320 1431.7 291 1431.7 256.5C1431.45 221 1398.7 193.75 1365.7 194ZM1366.2 305.25C1336.2 305.25 1331.2 208.5 1366.2 208.5C1395.2 208.5 1400.7 305.25 1366.2 305.25ZM1446.98 187V275C1446.98 296.25 1446.73 302.25 1435.98 314.25C1433.98 316.5 1435.73 320 1438.48 320H1492.73C1495.73 320 1497.23 316.5 1495.23 314.25C1487.23 305.5 1484.73 299.75 1484.73 289.25V139.25C1484.73 136.75 1481.98 135.25 1479.73 136L1433.98 155.75C1431.73 156.75 1431.23 160 1433.23 161.75C1443.23 169.25 1446.98 178.5 1446.98 187ZM1567 194C1532 194.5 1501.5 222.5 1501 256.5C1500.25 291.5 1533.5 320 1567.75 320C1602 320 1633 291 1633 256.5C1632.75 221 1600 193.75 1567 194ZM1567.5 305.25C1537.5 305.25 1532.5 208.5 1567.5 208.5C1596.5 208.5 1602 305.25 1567.5 305.25ZM1696.67 194.5C1665.17 194.75 1640.92 216 1640.67 241.75C1640.17 256.5 1648.42 269.75 1661.17 278.5C1644.17 288.75 1632.17 304.5 1641.67 318C1659.42 342.75 1720.67 325.5 1721.17 339.75C1721.67 350 1708.67 357.25 1689.42 357C1676.17 356.75 1665.17 351 1661.17 336.75C1660.92 335.25 1659.67 334.25 1658.17 334C1649.17 333.5 1638.67 339.75 1639.42 347.75C1641.42 363.75 1670.17 368.75 1689.92 368.75C1708.42 368.75 1726.92 363.25 1741.42 355.25C1771.17 338.5 1780.17 313 1741.42 304.25C1704.42 295.75 1644.67 304 1668.42 282.5C1676.92 286.75 1686.92 289 1697.42 289C1729.17 289 1754.17 267.25 1754.17 241.75C1754.17 229.75 1748.92 219 1740.17 210.75H1757.92C1764.92 210.75 1770.92 204.75 1770.92 197.75V197.5C1770.92 192.5 1769.17 189.75 1765.92 189.75C1764.42 189.75 1762.42 190.5 1760.17 191.5C1752.42 195.5 1743.42 197.25 1731.17 197.25C1725.42 197.25 1719.17 197 1711.92 196.25C1706.92 195 1701.92 194.5 1696.67 194.5ZM1697.42 278C1673.42 278 1669.67 205.5 1697.42 205.5C1720.17 205.5 1724.67 278 1697.42 278ZM1812.12 317.25C1812.62 318.75 1813.87 319.75 1815.37 319.75H1838.62C1840.87 319.75 1842.62 322 1841.87 324.25L1837.37 338.5C1836.37 341.25 1832.87 341.75 1831.12 339.25C1828.62 336 1824.87 334 1820.12 334C1811.62 334 1806.12 340.25 1806.12 350C1806.12 359.75 1811.62 366.25 1820.12 366.25H1828.87C1834.87 366.25 1840.12 362.5 1841.87 356.75L1881.87 237.75C1888.37 218.5 1890.12 212.25 1901.12 200.75C1903.37 198.75 1901.87 195 1898.62 195H1874.12C1871.62 195 1869.87 198 1871.37 200.25C1878.62 212 1877.37 218.25 1870.62 238L1850.37 297.25C1849.37 300.5 1844.62 300.25 1843.87 297L1822.12 223.75C1818.37 211.5 1821.12 205.75 1825.12 200.5C1826.87 198.25 1825.37 195 1822.37 195H1774.87C1771.87 195 1770.12 198.75 1772.37 200.75C1780.87 209.5 1782.62 216.25 1789.12 239L1812.12 317.25Z" fill="#47B64A"/>
</g>
<defs>
<filter id="filter0_d_638_3" x="133.883" y="135.25" width="1771.49" height="240.5" filterUnits="userSpaceOnUse" color-interpolation-filters="sRGB">
<feFlood flood-opacity="0" result="BackgroundImageFix"/>
<feColorMatrix in="SourceAlpha" type="matrix" values="0 0 0 0 0 0 0 0 0 0 0 0 0 0 0 0 0 0 127 0" result="hardAlpha"/>
<feOffset dy="5"/>
<feGaussianBlur stdDeviation="1"/>
<feComposite in2="hardAlpha" operator="out"/>
<feColorMatrix type="matrix" values="0 0 0 0 0 0 0 0 0 0 0 0 0 0 0 0 0 0 0.5 0"/>
<feBlend mode="normal" in2="BackgroundImageFix" result="effect1_dropShadow_638_3"/>
<feBlend mode="normal" in="SourceGraphic" in2="effect1_dropShadow_638_3" result="shape"/>
</filter>
</defs>
</svg>
