<?xml version="1.0" encoding="UTF-8"?>
<svg width="1200pt" height="1200pt" version="1.1" viewBox="0 0 1200 1200" xmlns="http://www.w3.org/2000/svg">
 <g>
  <path d="m60 0h1080c33.137 0 60 33.137 60 60v1080c0 33.137-26.863 60-60 60h-1080c-33.137 0-60-33.137-60-60v-1080c0-33.137 26.863-60 60-60z" fill="#f2f2f2"/>
  <path d="m433.96 378.09c-0.003906-2.6445 1.0469-5.1836 2.918-7.0508 1.8672-1.8711 4.4023-2.9219 7.0469-2.9219h67.629c2.6953-0.078126 5.3008 0.9375 7.2344 2.8164 1.9297 1.8789 3.0195 4.457 3.0195 7.1523 0 2.6914-1.0898 5.2734-3.0195 7.1523-1.9336 1.875-4.5391 2.8945-7.2344 2.8164h-67.629c-2.6406 0-5.1758-1.0508-7.0469-2.918-1.8672-1.8711-2.918-4.4023-2.918-7.0469zm9.9648 46.16h122.16c2.6914 0.078125 5.3008-0.94141 7.2305-2.8164 1.9336-1.8789 3.0234-4.457 3.0234-7.1523s-1.0898-5.2734-3.0234-7.1523c-1.9297-1.875-4.5391-2.8945-7.2305-2.8164h-122.16c-5.3945 0.14844-9.6914 4.5703-9.6914 9.9688s4.2969 9.8164 9.6914 9.9688zm0 36.211h122.16c2.6914 0.078124 5.3008-0.94141 7.2305-2.8164 1.9336-1.8789 3.0234-4.457 3.0234-7.1523 0-2.6953-1.0898-5.2734-3.0234-7.1523-1.9297-1.875-4.5391-2.8945-7.2305-2.8164h-122.16c-5.3945 0.15234-9.6914 4.5703-9.6914 9.9688 0 5.3984 4.2969 9.8164 9.6914 9.9688zm-54.207 436.27c-24.797-0.63281-49.504-3.2656-73.879-7.8711-5.3125-0.90625-10.383 2.5781-11.449 7.8633-1.0625 5.2852 2.2656 10.457 7.5156 11.68 25.449 4.8164 51.25 7.5664 77.145 8.2266h0.33984c5.418-0.035156 9.8164-4.3906 9.9023-9.8125 0.089844-5.418-4.1641-9.9141-9.582-10.125zm127.53 5.1484c0.027343 8.6641-3.875 16.879-10.613 22.332-6.7344 5.4531-15.578 7.5625-24.051 5.7383-8.4688-1.8281-15.66-7.3945-19.551-15.137-10.809 0.9375-22.043 1.5742-33.52 1.9297h-0.30078 0.003907c-5.4141-0.054688-9.7969-4.418-9.875-9.832-0.074219-5.4141 4.1797-9.9023 9.5898-10.109 10.91-0.32422 21.586-0.9375 31.852-1.8203 2.2539-9.1367 8.8555-16.578 17.656-19.914 8.8047-3.332 18.68-2.125 26.422 3.2266 7.7383 5.3516 12.355 14.168 12.348 23.578zm-19.941 0h0.003907c0-3.5234-2.1211-6.6953-5.375-8.043-3.2539-1.3477-7-0.60547-9.4883 1.8867-2.4922 2.4883-3.2344 6.2344-1.8867 9.4883 1.3477 3.2539 4.5195 5.375 8.043 5.375 4.7969-0.019532 8.6797-3.9102 8.6914-8.707zm-185.41-91.512c25.449 4.8125 51.25 7.5625 77.145 8.2266h0.33984c5.5039 0.085938 10.035-4.3008 10.125-9.8047 0.089844-5.5039-4.3008-10.039-9.8047-10.129-24.797-0.64062-49.504-3.2734-73.879-7.8711-2.6016-0.55469-5.3164-0.042968-7.543 1.418-2.2227 1.4609-3.7695 3.7539-4.2969 6.3633-0.52344 2.6055 0.015625 5.3164 1.5 7.5273 1.4844 2.207 3.7891 3.7305 6.4062 4.2305zm107.38-1.3633c-0.14453-5.4922 4.1797-10.066 9.6719-10.234 10.91-0.31641 21.586-0.92969 31.852-1.8125v0.003907c2.168-8.7695 8.3438-16.004 16.664-19.523 8.3203-3.5156 17.812-2.9023 25.613 1.6562 7.7969 4.5586 12.992 12.527 14.012 21.504 1.0195 8.9766-2.2539 17.906-8.832 24.102-6.5781 6.1914-15.688 8.918-24.586 7.3594-8.8984-1.5625-16.539-7.2266-20.621-15.285-10.809 0.9375-22.043 1.5742-33.52 1.9297h-0.30078 0.003906c-5.3945-0.007813-9.8047-4.3047-9.9492-9.6992zm60.613-5.1953c0 3.5195 2.1211 6.6953 5.375 8.043 3.2539 1.3477 6.9961 0.60156 9.4883-1.8867 2.4883-2.4883 3.2344-6.2344 1.8867-9.4883-1.3477-3.2539-4.5234-5.375-8.043-5.375-4.8125 0-8.7109 3.8984-8.7148 8.707zm-60.613-92.891c-0.14844-5.4922 4.1797-10.07 9.6719-10.234 10.91-0.32422 21.586-0.9375 31.852-1.8203v0.003907c2.168-8.7695 8.3438-16.004 16.664-19.52 8.3203-3.5195 17.812-2.9023 25.613 1.6523 7.7969 4.5586 12.992 12.531 14.012 21.504 1.0195 8.9766-2.2539 17.91-8.832 24.102-6.5781 6.1914-15.688 8.918-24.586 7.3594-8.8984-1.5586-16.539-7.2227-20.621-15.285-10.809 0.9375-22.043 1.5742-33.52 1.9375h-0.30078 0.003906c-5.3906-0.007813-9.7969-4.2969-9.9492-9.6836zm60.613-5.1953c0 3.5234 2.1211 6.6953 5.375 8.043 3.2539 1.3477 6.9961 0.60547 9.4883-1.8867 2.4883-2.4883 3.2344-6.2344 1.8867-9.4883-1.3477-3.2539-4.5234-5.375-8.043-5.375-2.3125 0-4.5312 0.92188-6.1641 2.5547-1.6367 1.6367-2.5547 3.8555-2.5508 6.168zm-168 6.582c25.453 4.8086 51.25 7.5586 77.145 8.2266h0.33984c5.5039 0.089844 10.035-4.3008 10.125-9.8047 0.089844-5.5039-4.3008-10.039-9.8047-10.129-24.797-0.63672-49.504-3.2695-73.879-7.8711-2.625-0.61328-5.3906-0.13281-7.6562 1.3242-2.2695 1.4609-3.8516 3.7773-4.3828 6.4219-0.53516 2.6445 0.027343 5.3906 1.5547 7.6133 1.5273 2.2227 3.8906 3.7344 6.5508 4.1875zm402.53 33.062c-28.125-0.015626-54.645-13.113-71.758-35.438-17.109-22.32-22.863-51.332-15.57-78.496 7.293-27.164 26.805-49.391 52.797-60.145 25.988-10.75 55.5-8.8008 79.852 5.2734 24.355 14.074 40.773 38.672 44.434 66.559 3.6602 27.887-5.8594 55.891-25.754 75.773-16.969 16.969-39.996 26.48-63.992 26.434zm7.8711-106.39h28.625v-44.539c-8.7109-5.2812-18.469-8.5898-28.594-9.6992zm-76.609 0h16.918v-32.016c-8.3281 9-14.152 20.023-16.887 31.977zm118.61 65.816h-0.003906c12.004-12.023 19.273-27.973 20.477-44.922 1.1992-16.949-3.7461-33.762-13.934-47.359v36.391c0 5.5078-4.4648 9.9727-9.9727 9.9727h-48.5c-5.5078 0-9.9727-4.4648-9.9727-9.9727v-63.574c-6.8984 1.1758-13.578 3.3828-19.816 6.5508v57.023c0 5.5078-4.4648 9.9727-9.9727 9.9727h-28.574c1.0195 18.227 9.0625 35.344 22.445 47.758 13.383 12.414 31.059 19.152 49.305 18.805 18.25-0.35156 35.652-7.7656 48.547-20.684zm182.23 139.54c0.03125 7.2969-2.8516 14.297-8.0117 19.453l-15.129 15.129h-0.003906c-5.1641 5.1484-12.156 8.0391-19.449 8.0391s-14.289-2.8906-19.453-8.0391l-32.434-32.434v45.457c0 2.6445-1.0508 5.1797-2.9219 7.0469-1.8711 1.8711-4.4062 2.918-7.0508 2.918h-274.43v20.16c0 14.816-16.617 25.867-50.805 33.77h-0.003906c-34.949 7.2383-70.582 10.668-106.27 10.234-35.691 0.43359-71.324-2.9961-106.27-10.234-34.188-7.8711-50.805-18.957-50.805-33.77v-294.2c0-14.785 16.648-25.828 50.895-33.746 6.3594-1.4727 13.203-2.7852 20.395-3.9375l-66.945-249.95c-0.67969-2.5586-0.31641-5.2852 1.0117-7.5742 1.3281-2.293 3.5117-3.9609 6.0742-4.6367l91.473-24.504v-25.191c0-2.6445 1.0508-5.1797 2.9219-7.0508 1.8711-1.8711 4.4062-2.918 7.0508-2.918h121.23l127.2-34.059c2.5547-0.68359 5.2773-0.32422 7.5664 0.99609l57.332 33.102h48.895l-0.003906 0.003906c2.6602-0.015625 5.2109 1.0352 7.0859 2.918l113.44 113.47c1.875 1.8789 2.9258 4.4297 2.918 7.0859v250.84l35.023 130.73 51.469 51.445c5.1602 5.1523 8.043 12.156 8.0117 19.449zm-94.465-124.57v37.746c3.2422-0.82812 6.6055-1.0586 9.9297-0.68359zm-578.62 103.81c0.71484 1.0938 6.8398 8.7695 40.094 15.785 31.98 6.0898 64.484 8.9922 97.039 8.6602 32.551 0.33203 65.059-2.5664 97.039-8.6602 33.25-7.0156 39.359-14.688 40.094-15.785l-0.003906-73.996c-9.8867 4.4961-20.238 7.8984-30.867 10.148-34.949 7.2344-70.582 10.668-106.27 10.23-35.691 0.4375-71.324-2.9961-106.27-10.23-10.621-2.25-20.965-5.6523-30.852-10.148zm0-98.062c0.71484 1.0859 6.8398 8.7695 40.094 15.742v0.003906c31.98 6.0938 64.484 8.9922 97.039 8.6602 32.551 0.33203 65.059-2.5664 97.039-8.6602 33.25-7.0078 39.359-14.688 40.094-15.742l-0.003906-74.062c-9.9141 4.5078-20.293 7.9141-30.953 10.164-34.918 7.2383-70.52 10.668-106.18 10.23-35.66 0.4375-71.262-2.9922-106.18-10.23-10.656-2.25-21.035-5.6562-30.953-10.164zm294.2-66.66v59.93h29.688c-10.031-18.414-15.586-38.934-16.207-59.898zm6.6992-128.05h-28.598v72.523c14.688 6.668 21.898 14.777 21.898 24.504v11.074h6.6992zm-6.6992 227.11h62.055c-3.3125-2.7227-6.5352-5.6211-9.6289-8.7148h0.003906c-3.3281-3.3242-6.4805-6.8164-9.4453-10.469h-42.98zm146.79 10.375h0.003906c35.266-0.035156 68.512-16.469 89.957-44.469 21.445-28 28.648-64.379 19.492-98.438s-33.633-61.922-66.227-75.395c-32.594-13.469-69.598-11.02-100.13 6.6367-30.531 17.652-51.113 48.504-55.695 83.473-4.5859 34.969 7.3555 70.078 32.305 95.004 21.277 21.324 50.176 33.281 80.297 33.219zm-51.793-285.57h-28.602v65.621c8.8086-6.6797 18.414-12.234 28.602-16.531zm88.285 21.941h-28.594v17.004c9.6758 0.55469 19.266 2.1602 28.594 4.793zm64.629 237.23 16.531 16.531v-40.578c-4.6094 8.5977-10.152 16.664-16.531 24.047zm-76.988-360.02h79.43l-79.43-79.422zm-173.97-113.46h75.234l-23.863-13.77zm-188.29 19.938v296.47c11.125-0.60547 22.602-0.92188 34.273-0.92188 9.125 0 18.105 0.19531 26.938 0.56641l0.003906-23.309c0.015625-5.4961 4.4766-9.9414 9.9727-9.9414h48.531c5.5078 0 9.9727 4.4648 9.9727 9.9727v30.699c3.707 0.70703 7.3047 1.4648 10.762 2.2578 3.1484 0.73047 6.168 1.4922 9.0547 2.2812v-75.543c0-2.6445 1.0508-5.1797 2.9219-7.0508 1.8672-1.8711 4.4062-2.9219 7.0508-2.9219h48.531c5.5078 0 9.9727 4.4648 9.9727 9.9727v75.988c5.2188-10.82 11.887-20.887 19.816-29.914v-94.195c0-5.5078 4.4648-9.9727 9.9727-9.9727h48.531c5.5078 0 9.9727 4.4648 9.9727 9.9727v52.477c6.5156-1.5859 13.137-2.6758 19.816-3.2695v-27.273c0-2.6445 1.0508-5.1836 2.9219-7.0508 1.8672-1.8711 4.4062-2.918 7.0508-2.918h48.531c5.4961 0.015625 9.9414 4.4727 9.9414 9.9688v39.199c26.121 12.246 47.59 32.602 61.207 58.035v-190.11h-103.46c-2.6445 0-5.1797-1.0469-7.0508-2.918-1.8711-1.8672-2.9219-4.4062-2.9219-7.0508v-103.5zm109.75 282.77h-28.602v14.523c9.9414 0.78906 19.516 1.7617 28.598 2.9922zm-141.34 16.305c3.8086-0.42969 7.6953-0.82422 11.652-1.1797v-262.04l-76.68 20.547zm-70.949 40.453c1.668 1.9922 9.4453 8.957 39.918 15.383 31.934 6.0859 64.391 8.9883 96.898 8.6602 32.508 0.32812 64.969-2.5742 96.902-8.6602 30.449-6.4219 38.242-13.383 39.91-15.383-1.668-1.9844-9.4453-8.957-39.91-15.375v0.003906c-31.934-6.0859-64.395-8.9883-96.902-8.6602-32.508-0.32812-64.969 2.5742-96.906 8.6602-30.449 6.4062-38.242 13.391-39.91 15.371zm273.95 293.81v-74.043c-9.8867 4.4961-20.238 7.8984-30.867 10.137-34.949 7.2383-70.582 10.672-106.27 10.234-35.691 0.43359-71.324-2.9961-106.27-10.234-10.629-2.2422-20.977-5.6406-30.867-10.137v74.043c0.73047 1.1172 6.8945 8.7773 40.094 15.785 31.98 6.0859 64.484 8.9883 97.039 8.6562 32.551 0.33203 65.059-2.5703 97.039-8.6562 33.211-7.0078 39.375-14.699 40.105-15.785zm284.37-95.125-7.8711-7.8711h-0.003906c-5.1484-5.1641-8.0391-12.16-8.0391-19.453s2.8906-14.285 8.0391-19.453l0.51172-0.51953-23.301-23.301c-18.793 16.16-41.711 26.777-66.191 30.652-24.48 3.8789-49.559 0.87109-72.426-8.6875h-95.148v19.191h193.25c2.6914-0.074218 5.3008 0.94141 7.2305 2.8203 1.9336 1.875 3.0234 4.457 3.0234 7.1484 0 2.6953-1.0898 5.2734-3.0234 7.1523-1.9297 1.8789-4.5391 2.8945-7.2305 2.8203h-193.25v64.953l264.43-0.003906zm94.512 17.789c0.011719-2.0039-0.78125-3.9336-2.1992-5.3516l-60.215-60.215h0.003906c-2.9609-2.9492-7.75-2.9492-10.707 0l-15.129 15.129v0.003907c-2.9531 2.957-2.9531 7.7461 0 10.703l60.215 60.215h-0.003907c2.9609 2.9492 7.75 2.9492 10.707 0l15.129-15.129c1.418-1.4219 2.207-3.3477 2.1992-5.3555z" fill="#23384d"/>
 </g>
</svg>
