<svg width="2212" height="813" viewBox="0 0 2212 813" fill="none" xmlns="http://www.w3.org/2000/svg">
<path d="M0 41.8373C0 18.7312 17.5073 0 39.1037 0H2172.9C2194.49 0 2212 18.7312 2212 41.8373V771.163C2212 794.269 2194.49 813 2172.9 813H39.1037C17.5073 813 0 794.269 0 771.163V41.8373Z" fill="#F2F2F2"/>
<path fill-rule="evenodd" clip-rule="evenodd" d="M828.137 151.688L891.033 245.421H1276.55V151.688H1550.58V245.421H1637.77V285.589L1675.13 245.421H1786.88L1849.78 151.688H1986.53V245.421H2048.81L2111.09 312.37V540.005L1998.99 660.519H1687.59L1637.77 606.961V660.519H1475.84L1426.02 606.961V660.519H1089.71L1039.88 606.961V660.519H865.502L691.117 473.06V151.688H828.137Z" fill="black"/>
<path fill-rule="evenodd" clip-rule="evenodd" d="M815.685 178.57V272.3H902.878V379.424H815.685V406.205H902.878V513.329H765.861L716.041 459.771V178.57H815.685ZM1027.44 272.3V406.205H1052.35V272.3H1151.99V406.205H1176.9V272.3H1276.56V513.329H977.61L927.79 459.767V272.3H1027.44ZM1525.67 178.57V272.3H1612.86V379.424H1525.67V406.205H1612.86V513.329H1475.85L1426.03 459.771V178.57H1525.67ZM1961.62 178.567V272.3H2036.36L2086.19 325.862V513.329H1986.54V379.42H1961.62V513.329H1861.98V178.567H1961.62ZM1401.11 272.304V513.329H1301.46V272.304H1401.11ZM1837.07 272.3V379.424H1737.42V406.205H1837.07V513.329H1687.6L1637.78 459.771V325.862L1687.6 272.3H1837.07ZM1401.11 178.566V245.519H1301.46V178.566H1401.11Z" fill="white"/>
<g clip-path="url(#clip0_935_17)">
<path d="M532.883 386.897L456.94 465.313H380.997L314.547 533.927V465.313H229.111V171.254H532.883V386.897Z" fill="white"/>
<path d="M210.126 132.045L115.197 230.065V582.936H229.111V680.956L324.04 582.936H399.982L570.853 406.501V132.045H210.126ZM532.882 386.897L456.939 465.313H380.997L314.547 533.927V465.313H229.111V171.253H532.882V386.897Z" fill="#9146FF"/>
<path d="M475.925 239.867H437.954V357.491H475.925V239.867Z" fill="#9146FF"/>
<path d="M371.505 239.867H333.533V357.491H371.505V239.867Z" fill="#9146FF"/>
</g>
<defs>
<clipPath id="clip0_935_17">
<rect width="455.656" height="548.911" fill="white" transform="translate(115.197 132.045)"/>
</clipPath>
</defs>
</svg>
